<svg width="1240" height="1281" viewBox="0 0 1240 1281" fill="none" xmlns="http://www.w3.org/2000/svg">
<mask id="mask0_2123_3110" style="mask-type:alpha" maskUnits="userSpaceOnUse" x="130" y="207" width="979" height="867">
<path d="M669.914 748.312C673.844 748.312 677.475 750.409 679.44 753.812L854.238 1056.57C858.472 1063.9 853.18 1073.07 844.712 1073.07L394.363 1073.07C385.895 1073.07 380.603 1063.91 384.837 1056.57L559.636 753.812C561.6 750.409 565.232 748.312 569.162 748.312L669.914 748.312ZM1097.6 645.059C1106.07 645.059 1111.36 654.225 1107.13 661.559L881.951 1051.57C877.717 1058.9 867.132 1058.9 862.899 1051.57L688.1 748.812C686.135 745.409 686.135 741.215 688.1 737.812L738.476 650.559C740.441 647.155 744.072 645.059 748.002 645.059L1097.6 645.059ZM369.539 1073.07C369.54 1073.07 369.54 1073.07 369.539 1073.07C369.539 1073.07 369.539 1073.07 369.538 1073.07C369.538 1073.07 369.539 1073.07 369.539 1073.07ZM491.074 645.059C495.004 645.059 498.635 647.155 500.6 650.559L550.976 737.812C552.941 741.215 552.941 745.408 550.976 748.812L376.178 1051.57C371.944 1058.9 361.359 1058.9 357.125 1051.57L131.951 661.559C127.717 654.225 133.01 645.059 141.477 645.059L491.074 645.059ZM1107.13 618.559C1111.36 625.892 1106.07 635.059 1097.6 635.059L748.002 635.059C744.072 635.059 740.441 632.962 738.476 629.559L688.1 542.306C686.135 538.902 686.135 534.709 688.1 531.306L862.899 228.546C867.132 221.213 877.717 221.213 881.951 228.546L1107.13 618.559ZM844.711 207.047C853.179 207.047 858.471 216.213 854.237 223.547L679.439 526.306C677.474 529.71 673.843 531.806 669.913 531.806L569.163 531.806C565.233 531.806 561.602 529.71 559.637 526.306L384.838 223.547C380.604 216.214 385.897 207.047 394.365 207.047L844.711 207.047ZM550.976 531.306C552.941 534.71 552.941 538.903 550.976 542.306L500.601 629.559C498.636 632.962 495.004 635.059 491.074 635.059L141.477 635.059C133.01 635.059 127.717 625.892 131.951 618.559L357.126 228.547C361.359 221.214 371.944 221.214 376.178 228.547L550.976 531.306Z" fill="#D9D9D9"/>
</mask>
<g mask="url(#mask0_2123_3110)">
<path d="M622.278 639.227L342.301 154.293H902.255L622.278 639.227Z" fill="#A0B1DD"/>
<path d="M619.634 640.25L899.61 155.317L1179.59 640.25L619.634 640.25Z" fill="#A5DAE1"/>
<path d="M617.425 638.471L1177.38 638.471L897.402 1123.4L617.425 638.471Z" fill="#B0D89A"/>
<path d="M617.861 635.669L897.837 1120.6H337.884L617.861 635.669Z" fill="#EDE88D"/>
<path d="M620.505 634.646L340.528 1119.58L60.5516 634.646L620.505 634.646Z" fill="#F0A891"/>
<path d="M622.716 636.424L62.7624 636.424L342.739 151.49L622.716 636.424Z" fill="#E487B3"/>
<path d="M704.258 973.016L704.738 973.784L704.258 979.448C702.146 979.64 700.578 979.832 699.554 980.024C698.53 980.28 697.826 980.632 697.442 981.08C697.058 981.528 696.866 982.136 696.866 982.904C696.866 983.352 696.898 983.832 696.962 984.344C697.026 984.92 697.154 985.56 697.346 986.264L699.362 993.656C700.578 993.72 702.082 993.752 703.874 993.752C705.602 993.816 707.042 993.848 708.194 993.848C709.73 993.848 711.362 993.752 713.09 993.56C714.818 993.432 716.258 993.304 717.41 993.176L719.81 985.784C720.194 984.376 720.386 983.384 720.386 982.808C720.386 981.656 720.066 980.856 719.426 980.408C718.722 979.96 717.538 979.736 715.874 979.736H711.746L711.266 979.064L711.938 973.208C711.938 973.208 712.706 973.272 714.242 973.4C715.714 973.464 717.538 973.56 719.714 973.688C721.826 973.752 723.906 973.784 725.954 973.784C727.682 973.784 729.442 973.784 731.234 973.784C733.026 973.72 734.53 973.656 735.746 973.592C736.898 973.528 737.474 973.496 737.474 973.496L736.802 979.736C735.266 979.992 734.018 980.6 733.058 981.56C732.098 982.52 731.234 984.088 730.466 986.264L713.282 1034.94L698.594 1036.47L697.538 1035.99C697.538 1035.99 697.346 1035.16 696.962 1033.5C696.514 1031.83 695.906 1029.59 695.138 1026.78C694.37 1024.02 693.506 1020.89 692.546 1017.37C691.586 1013.85 690.626 1010.23 689.666 1006.52C688.642 1002.81 687.618 999.192 686.594 995.672C685.57 992.216 684.61 989.112 683.714 986.36C683.074 984.056 682.21 982.424 681.122 981.464C679.97 980.504 678.306 979.928 676.13 979.736L675.746 979.064L676.418 973.496C676.418 973.496 677.122 973.528 678.53 973.592C679.874 973.656 681.474 973.72 683.33 973.784C685.122 973.784 686.722 973.784 688.13 973.784C690.818 973.784 693.41 973.72 695.906 973.592C698.402 973.464 700.418 973.336 701.954 973.208C703.49 973.08 704.258 973.016 704.258 973.016ZM715.106 1001.24H708.194C707.17 1001.24 705.986 1001.27 704.642 1001.34C703.234 1001.4 702.05 1001.46 701.09 1001.53L706.754 1022.94H708.002L715.106 1001.24ZM647.765 978.968C646.229 979.288 645.141 979.864 644.501 980.696C643.797 981.592 643.413 982.808 643.349 984.344L643.061 1000.95C643.061 1003.77 643.573 1005.85 644.597 1007.19C645.621 1008.6 647.189 1009.3 649.301 1009.3C650.325 1009.3 651.413 1009.08 652.565 1008.63C653.653 1008.18 654.677 1007.67 655.637 1007.1C656.533 1006.52 657.237 1006.04 657.749 1005.66C657.877 1003.93 658.005 1001.98 658.133 999.8C658.197 997.624 658.293 995.448 658.421 993.272C658.485 991.16 658.549 989.272 658.613 987.608C658.677 985.944 658.709 984.76 658.709 984.056C658.709 982.392 658.485 981.24 658.037 980.6C657.589 980.024 656.853 979.736 655.829 979.736C655.381 979.736 654.837 979.736 654.197 979.736C653.557 979.8 653.237 979.832 653.237 979.832L653.045 979.448L654.005 973.496C654.005 973.496 654.581 973.528 655.733 973.592C656.885 973.656 658.261 973.72 659.861 973.784C661.397 973.784 662.805 973.784 664.085 973.784C665.749 973.784 667.477 973.784 669.269 973.784C670.997 973.72 672.469 973.656 673.685 973.592C674.901 973.528 675.509 973.496 675.509 973.496L674.645 979.352C672.789 979.544 671.509 979.992 670.805 980.696C670.037 981.464 669.653 982.744 669.653 984.536V1004.89C669.653 1007.06 670.005 1008.57 670.709 1009.4C671.349 1010.23 672.565 1010.65 674.357 1010.65H675.605L675.989 1011.13L675.509 1016.12C672.565 1016.57 669.781 1017.02 667.157 1017.46C664.469 1017.98 662.261 1018.39 660.533 1018.71C658.741 1019.1 657.845 1019.29 657.845 1019.29L657.077 1018.33C657.077 1018.33 657.237 1017.62 657.557 1016.22C657.813 1014.87 658.005 1013.37 658.133 1011.7L657.845 1011.42C657.077 1012.06 656.117 1012.79 654.965 1013.62C653.749 1014.52 652.533 1015.38 651.317 1016.22C650.037 1017.11 648.853 1017.82 647.765 1018.33C646.677 1018.9 645.845 1019.19 645.269 1019.19C641.685 1019.19 638.741 1018.52 636.437 1017.18C634.133 1015.83 632.565 1013.85 631.733 1011.22C631.029 1011.8 630.101 1012.54 628.949 1013.43C627.797 1014.33 626.581 1015.19 625.301 1016.02C624.021 1016.92 622.805 1017.66 621.653 1018.23C620.501 1018.87 619.605 1019.19 618.965 1019.19C614.357 1019.19 610.805 1018.07 608.309 1015.83C605.749 1013.66 604.469 1010.65 604.469 1006.81C604.469 1005.85 604.565 1004.38 604.757 1002.39C604.949 1000.41 605.173 998.232 605.429 995.864C605.621 993.496 605.813 991.256 606.005 989.144C606.197 987.032 606.293 985.368 606.293 984.152C606.293 982.424 606.069 981.208 605.621 980.504C605.109 979.864 604.309 979.544 603.221 979.544C602.645 979.544 602.005 979.576 601.301 979.64C600.597 979.704 600.245 979.736 600.245 979.736L600.053 979.352L601.013 973.496C601.013 973.496 601.397 973.528 602.165 973.592C602.869 973.592 603.765 973.624 604.853 973.688C605.941 973.688 607.093 973.72 608.309 973.784C609.461 973.784 610.517 973.784 611.477 973.784C612.373 973.784 613.429 973.752 614.645 973.688C615.797 973.624 616.917 973.592 618.005 973.592C619.093 973.528 620.021 973.464 620.789 973.4C621.493 973.336 621.845 973.304 621.845 973.304L621.173 979.256C619.701 979.512 618.645 979.992 618.005 980.696C617.365 981.464 617.045 982.68 617.045 984.344L616.757 1000.95C616.693 1003.77 617.173 1005.85 618.197 1007.19C619.221 1008.6 620.821 1009.3 622.997 1009.3C624.021 1009.3 625.077 1009.11 626.165 1008.73C627.189 1008.34 628.149 1007.86 629.045 1007.29C629.941 1006.71 630.677 1006.2 631.253 1005.75L632.501 984.152C632.501 982.552 632.277 981.368 631.829 980.6C631.381 979.896 630.613 979.544 629.525 979.544C629.013 979.544 628.437 979.576 627.797 979.64C627.157 979.704 626.837 979.736 626.837 979.736L626.645 979.352L627.605 973.496C627.605 973.496 627.957 973.528 628.661 973.592C629.365 973.592 630.261 973.624 631.349 973.688C632.373 973.688 633.461 973.72 634.613 973.784C635.765 973.784 636.789 973.784 637.685 973.784C638.645 973.784 639.733 973.752 640.949 973.688C642.101 973.56 643.253 973.464 644.405 973.4C645.557 973.336 646.517 973.272 647.285 973.208C648.053 973.08 648.437 973.016 648.437 973.016L647.765 978.968ZM574.623 972.632C578.719 972.632 582.271 973.528 585.279 975.32C588.287 977.112 590.655 979.672 592.383 983C594.047 986.328 594.879 990.2 594.879 994.616C594.879 999.48 593.919 1003.74 591.999 1007.38C590.015 1011.1 587.295 1013.98 583.839 1016.02C580.319 1018.14 576.287 1019.19 571.743 1019.19C567.583 1019.19 563.999 1018.3 560.991 1016.5C557.983 1014.71 555.679 1012.18 554.079 1008.92C552.415 1005.66 551.583 1001.78 551.583 997.304C551.583 992.44 552.543 988.152 554.463 984.44C556.383 980.728 559.103 977.816 562.623 975.704C566.079 973.656 570.079 972.632 574.623 972.632ZM572.703 979.832C569.951 979.832 567.871 980.92 566.463 983.096C564.991 985.336 564.255 988.6 564.255 992.888C564.255 996.92 564.639 1000.28 565.407 1002.97C566.175 1005.72 567.295 1007.77 568.767 1009.11C570.175 1010.46 571.903 1011.13 573.951 1011.13C576.703 1011.13 578.815 1010.04 580.287 1007.86C581.695 1005.69 582.399 1002.42 582.399 998.072C582.399 994.04 582.015 990.648 581.247 987.896C580.479 985.208 579.391 983.192 577.983 981.848C576.511 980.504 574.751 979.832 572.703 979.832ZM544.227 979.256C542.307 979.384 541.027 979.896 540.387 980.792C539.683 981.688 539.331 983.384 539.331 985.88V1004.98C539.331 1007.16 539.619 1008.63 540.195 1009.4C540.771 1010.23 541.859 1010.65 543.459 1010.65C543.843 1010.65 544.259 1010.62 544.707 1010.55C545.091 1010.55 545.283 1010.55 545.283 1010.55L545.763 1011.22L545.187 1016.02C542.435 1016.47 539.747 1016.95 537.123 1017.46C534.499 1017.98 532.323 1018.39 530.595 1018.71C528.803 1019.1 527.907 1019.29 527.907 1019.29L527.043 1018.42C527.043 1018.42 527.139 1017.94 527.331 1016.98C527.459 1016.09 527.587 1014.94 527.715 1013.53C527.843 1012.18 527.939 1010.81 528.003 1009.4L527.427 1009.02C525.379 1012.02 523.171 1014.36 520.803 1016.02C518.435 1017.69 516.163 1018.52 513.987 1018.52C512.963 1018.52 512.163 1018.46 511.587 1018.33C510.947 1018.26 510.627 1018.23 510.627 1018.23L510.243 1017.46C510.243 1017.46 510.339 1016.92 510.531 1015.83C510.659 1014.81 510.851 1013.43 511.107 1011.7C511.299 1009.98 511.523 1008.09 511.779 1006.04C511.971 1003.99 512.099 1002.01 512.163 1000.09L518.307 999.704C518.307 1002.78 518.499 1004.79 518.883 1005.75C519.203 1006.78 519.907 1007.29 520.995 1007.29C522.019 1007.29 523.107 1006.9 524.259 1006.14C525.411 1005.37 526.499 1004.31 527.523 1002.97C527.523 1002.97 527.555 1002.39 527.619 1001.24C527.683 1000.15 527.779 998.744 527.907 997.016C527.971 995.288 528.035 993.528 528.099 991.736C528.163 989.944 528.227 988.376 528.291 987.032C528.355 985.688 528.387 984.824 528.387 984.44C528.387 982.776 528.131 981.624 527.619 980.984C527.043 980.344 526.051 980.024 524.643 980.024C523.747 980.024 522.723 980.056 521.571 980.12C520.419 980.248 519.843 980.312 519.843 980.312L519.555 979.736L520.611 973.4C520.611 973.4 521.027 973.432 521.859 973.496C522.691 973.56 523.779 973.624 525.123 973.688C526.403 973.688 527.747 973.72 529.155 973.784C530.563 973.784 531.843 973.784 532.995 973.784C534.915 973.784 536.803 973.752 538.659 973.688C540.515 973.624 542.051 973.56 543.267 973.496C544.419 973.432 544.995 973.4 544.995 973.4L544.227 979.256Z" fill="black"/>
<path d="M369.393 873.748C364.976 878.514 360.821 883.093 356.927 887.485C352.978 891.908 349.408 895.965 346.217 899.654C342.971 903.376 340.223 906.551 337.972 909.181L338.356 909.846C338.855 909.558 339.912 909.022 341.528 908.236C343.144 907.451 345.053 906.534 347.255 905.484C349.425 904.379 351.722 903.238 354.146 902.06C356.515 900.914 358.8 899.816 361.002 898.767C363.117 897.694 364.927 896.796 366.432 896.075C367.905 895.299 368.808 894.814 369.14 894.622C370.914 893.598 371.289 892.2 370.265 890.426C370.073 890.093 369.769 889.567 369.353 888.846C368.881 888.158 368.614 887.758 368.55 887.647L368.677 886.908L374.443 884.799C374.763 885.353 375.263 886.284 375.944 887.591C376.592 888.842 377.273 890.149 377.986 891.511C378.666 892.818 379.246 893.887 379.726 894.718C380.11 895.383 380.602 896.171 381.202 897.081C381.801 897.991 382.412 898.858 383.035 899.681C383.658 900.504 384.173 901.204 384.58 901.781C384.956 902.304 385.144 902.565 385.144 902.565L379.452 905.186C378.325 903.619 377.154 902.743 375.939 902.558C374.636 902.35 372.836 902.687 370.538 903.571C369.864 903.812 368.592 904.361 366.723 905.219C364.853 906.077 362.635 907.099 360.068 908.285C357.469 909.416 354.831 910.606 352.154 911.857C349.389 913.084 346.778 914.258 344.322 915.38C341.834 916.447 339.783 917.373 338.167 918.158C336.463 918.92 335.445 919.397 335.113 919.589C334.06 920.197 333.396 920.839 333.121 921.515C332.759 922.168 332.711 923.045 332.978 924.147C333.157 925.226 333.672 926.629 334.521 928.356L334.262 929.059L329.008 931.095C328.519 930.121 327.919 928.953 327.206 927.59C326.494 926.228 325.797 924.894 325.116 923.587C324.436 922.28 323.872 921.239 323.424 920.463C322.88 919.52 322.288 918.495 321.648 917.387C320.92 916.255 320.225 915.178 319.561 914.157C318.898 913.136 318.378 912.364 318.003 911.842C321.543 908.246 324.89 904.762 328.042 901.39C331.139 898.05 333.967 895.013 336.527 892.279C339.055 889.489 341.208 887.138 342.985 885.225C344.731 883.256 345.967 881.877 346.694 881.088L346.31 880.423C345.319 880.626 343.55 881.019 341.005 881.602C338.427 882.129 335.298 882.79 331.618 883.585C327.907 884.323 323.814 885.171 319.341 886.128C314.868 887.085 310.185 888.125 305.292 889.251C304.844 888.475 304.328 887.516 303.744 886.376C303.127 885.18 302.467 883.972 301.763 882.753C301.059 881.534 300.375 880.413 299.712 879.392C299.2 878.505 298.564 877.468 297.804 876.281C296.958 875.07 296.218 873.982 295.587 873.016C294.9 872.083 294.477 871.477 294.317 871.2L294.457 870.676L299.734 868.294C301.244 870.526 302.588 871.894 303.765 872.396C304.886 872.931 306.195 872.767 307.692 871.903C308.413 871.487 309.616 870.755 311.302 869.708C312.956 868.605 314.915 867.326 317.179 865.871C319.356 864.393 321.698 862.818 324.207 861.148C326.629 859.454 329.039 857.804 331.437 856.198C333.78 854.624 335.901 853.178 337.8 851.859C340.624 849.711 342.419 848.084 343.184 846.977C343.894 845.902 343.865 844.7 343.097 843.37C342.841 842.926 342.541 842.471 342.198 842.004C341.854 841.537 341.65 841.249 341.586 841.138L341.81 840.565L347.48 838.289C347.672 838.622 348.028 839.303 348.549 840.333C349.037 841.307 349.606 842.42 350.254 843.671C350.926 844.835 351.534 845.888 352.078 846.83C352.622 847.773 353.29 848.865 354.082 850.108C354.873 851.351 355.692 852.578 356.539 853.788C357.386 854.999 358.093 856.032 358.66 856.887C359.228 857.742 359.528 858.197 359.56 858.252L353.82 860.79C352.638 859.255 351.534 858.304 350.509 857.935C349.427 857.599 348.249 857.798 346.975 858.534C346.531 858.79 345.704 859.342 344.493 860.189C343.251 860.98 341.763 861.987 340.03 863.209C338.265 864.376 336.361 865.623 334.319 866.95C332.277 868.277 330.306 869.599 328.407 870.917C326.475 872.18 324.71 873.347 323.111 874.418C321.513 875.489 320.242 876.296 319.3 876.84L319.732 877.588C322.286 877.148 325.221 876.6 328.536 875.942C331.851 875.284 335.508 874.577 339.505 873.821C343.503 873.065 347.683 872.241 352.045 871.348C356.407 870.455 360.852 869.515 365.38 868.526L369.393 873.748ZM335.116 815.146C337.356 819.026 338.516 822.827 338.596 826.55C338.644 830.217 337.675 833.659 335.689 836.875C333.671 840.035 330.722 842.736 326.842 844.976C323.794 846.736 320.707 847.853 317.581 848.327C314.455 848.801 311.438 848.696 308.53 848.01C305.566 847.357 302.87 846.142 300.441 844.367C297.956 842.624 295.914 840.366 294.314 837.595C288.938 828.283 290.961 820.908 300.383 815.468C301.215 814.988 302.122 814.575 303.105 814.229C304.055 813.828 304.812 813.539 305.375 813.362L306.949 813.783L319.381 835.316C323.141 832.997 325.622 830.383 326.824 827.472C327.938 824.538 327.726 821.482 326.187 818.306C324.649 815.129 321.754 812.034 317.501 809.021L317.498 808.247L320.804 804.565C322.275 805.193 323.99 806.051 325.947 807.138C327.849 808.256 329.645 809.511 331.334 810.9C333.023 812.29 334.284 813.705 335.116 815.146ZM314.808 837.956L307.567 826.95C307.128 826.317 306.749 825.981 306.431 825.943C306.026 825.881 305.463 826.059 304.743 826.475C302.747 827.627 301.479 828.95 300.938 830.445C300.397 831.94 300.623 833.546 301.615 835.264C302.863 837.426 304.635 838.768 306.931 839.289C309.14 839.787 311.766 839.343 314.808 837.956ZM303.968 761.197C306.816 766.13 306.421 770.053 302.782 772.966L302.904 773.561C306.324 775.134 309.013 776.463 310.971 777.55C312.897 778.581 314.019 779.374 314.339 779.929C316.195 783.143 317.091 786.358 317.026 789.573C316.873 792.765 315.823 795.81 313.875 798.709C311.84 801.583 308.966 804.093 305.252 806.237C301.095 808.637 296.897 809.878 292.659 809.96C288.333 810.019 284.315 809.013 280.607 806.942C276.898 804.871 273.876 801.812 271.54 797.766C271.124 797.045 270.752 796.337 270.423 795.639C270.007 794.919 269.631 794.139 269.294 793.299L258.569 799.491C256.851 800.483 255.819 801.448 255.474 802.386C255.041 803.301 255.193 804.396 255.929 805.671C256.153 806.059 256.464 806.47 256.863 806.905C257.175 807.316 257.33 807.522 257.33 807.522L252.137 809.855C250.796 808.043 249.398 806.263 247.946 804.515C246.493 802.767 245.18 801.198 244.007 799.806C242.747 798.39 241.761 797.259 241.051 796.413C240.309 795.512 239.938 795.061 239.938 795.061L240.919 793.497C241.522 793.518 242.874 793.107 244.974 792.264C247.074 791.421 249.767 790.198 253.055 788.596C256.255 786.97 259.925 785.073 264.068 782.903C268.21 780.733 272.641 778.36 277.36 775.783C281.993 773.182 286.803 770.442 291.791 767.562C292.844 766.954 293.548 766.252 293.901 765.457C294.223 764.606 294.144 763.765 293.664 762.933C293.28 762.268 292.817 761.723 292.275 761.296C291.646 760.847 291.125 760.52 290.711 760.315C290.265 760.055 290.043 759.925 290.043 759.925L291.02 757.587C291.02 757.587 291.481 757.616 292.402 757.676C293.323 757.735 294.507 757.865 295.952 758.065C297.311 758.241 298.721 758.573 300.184 759.058C301.647 759.544 302.908 760.257 303.968 761.197ZM304.915 781.268C304.467 780.492 303.896 779.824 303.203 779.264C302.422 778.68 301.69 778.179 301.005 777.761C300.265 777.376 299.645 777.069 299.144 776.841C298.643 776.613 298.392 776.499 298.392 776.499L277.358 788.643C277.358 788.643 277.472 789.353 277.701 790.773C277.842 792.169 278.441 793.782 279.497 795.611C281.065 798.327 283.306 799.841 286.221 800.153C289.08 800.498 292.367 799.598 296.08 797.454C298.851 795.854 301.07 794.13 302.737 792.281C304.316 790.408 305.336 788.526 305.796 786.635C306.168 784.72 305.875 782.931 304.915 781.268ZM287.595 732.837C289.643 736.385 290.643 739.909 290.595 743.41C290.547 746.911 289.514 750.241 287.496 753.402C285.446 756.507 282.508 759.164 278.684 761.372C274.472 763.804 270.306 765.1 266.187 765.261C261.98 765.399 258.126 764.484 254.624 762.515C251.035 760.522 248.105 757.558 245.833 753.623C243.753 750.021 242.737 746.469 242.785 742.968C242.832 739.467 243.87 736.207 245.896 733.19C247.891 730.117 250.828 727.46 254.708 725.22C258.921 722.788 263.114 721.475 267.289 721.282C271.463 721.089 275.345 721.989 278.934 723.981C282.436 725.95 285.323 728.902 287.595 732.837ZM280.399 734.775C279.023 732.391 277.041 731.134 274.453 731.003C271.777 730.848 268.582 731.842 264.869 733.986C261.377 736.002 258.659 738.015 256.715 740.024C254.716 742.065 253.502 744.059 253.074 746.006C252.614 747.897 252.896 749.73 253.92 751.503C255.296 753.887 257.294 755.172 259.915 755.359C262.503 755.49 265.682 754.468 269.451 752.292C272.943 750.276 275.688 748.247 277.688 746.206C279.632 744.197 280.834 742.247 281.293 740.355C281.721 738.408 281.423 736.548 280.399 734.775Z" fill="black"/>
<path d="M972.872 709.686L973.777 709.654L978.442 712.902C977.552 714.827 976.934 716.281 976.589 717.264C976.298 718.278 976.251 719.064 976.447 719.621C976.643 720.177 977.074 720.647 977.739 721.031C978.127 721.255 978.558 721.468 979.034 721.668C979.565 721.901 980.183 722.11 980.889 722.296L988.298 724.246C988.962 723.225 989.741 721.938 990.637 720.386C991.557 718.922 992.305 717.691 992.881 716.693C993.649 715.363 994.381 713.902 995.079 712.309C995.832 710.749 996.441 709.437 996.907 708.376L991.705 702.601C990.678 701.565 989.915 700.903 989.416 700.615C988.418 700.039 987.565 699.916 986.857 700.246C986.117 700.632 985.331 701.545 984.499 702.986L982.435 706.561L981.613 706.641L976.878 703.131C976.878 703.131 977.317 702.498 978.196 701.231C978.988 699.989 979.983 698.457 981.182 696.636C982.293 694.839 983.361 693.054 984.385 691.28C985.249 689.784 986.129 688.26 987.025 686.708C987.865 685.124 988.562 683.789 989.114 682.704C989.635 681.675 989.895 681.16 989.895 681.16L994.963 684.862C994.417 686.32 994.319 687.705 994.671 689.016C995.022 690.328 995.948 691.86 997.449 693.613L1031.01 732.831L1024.99 746.319L1024.05 746.993C1024.05 746.993 1023.23 746.744 1021.6 746.244C1019.94 745.8 1017.69 745.207 1014.87 744.464C1012.1 743.753 1008.95 742.933 1005.43 742.005C1001.9 741.076 998.286 740.099 994.591 739.075C990.864 738.106 987.221 737.184 983.66 736.311C980.155 735.47 976.987 734.749 974.156 734.149C971.84 733.552 969.995 733.484 968.62 733.946C967.212 734.464 965.882 735.617 964.627 737.405L963.853 737.402L959.367 734.036C959.367 734.036 959.747 733.442 960.506 732.255C961.234 731.123 962.089 729.769 963.073 728.194C963.969 726.642 964.769 725.256 965.473 724.037C966.817 721.709 968.057 719.432 969.194 717.207C970.332 714.981 971.229 713.171 971.886 711.777C972.543 710.383 972.872 709.686 972.872 709.686ZM1002.74 714.403L999.282 720.389C998.77 721.276 998.206 722.317 997.589 723.513C996.941 724.765 996.404 725.822 995.98 726.685L1017.35 732.484L1017.98 731.403L1002.74 714.403ZM958.43 734.508L963.165 738.018C962.73 739.54 962.601 740.722 962.78 741.565C962.927 742.462 963.412 743.222 964.235 743.845C965.081 744.556 966.197 745.311 967.582 746.111L1006.16 768.383C1007.6 769.215 1008.73 769.684 1009.56 769.791C1010.35 769.953 1011.05 769.695 1011.67 769.015C1012.34 768.367 1013.07 767.235 1013.85 765.619L1014.38 765.478L1018.49 768.521C1017.23 771.484 1016.01 774.48 1014.86 777.507C1013.67 780.59 1012.54 783.704 1011.46 786.851L1009.54 786.521C1008.93 785.796 1007.67 784.703 1005.78 783.242C1003.95 781.812 1001.51 780.075 998.483 778.029C995.452 775.984 991.933 773.694 987.928 771.159C983.978 768.657 979.608 765.986 974.818 763.147C970.028 760.307 964.972 757.352 959.651 754.28C958.321 753.512 957.255 753.118 956.454 753.098C955.675 753.166 955.014 753.672 954.47 754.614L953.053 757.453L952.41 757.415L948.033 753.668C948.92 752.259 949.903 750.684 950.983 748.942C952.062 747.201 952.97 745.692 953.706 744.418C954.378 743.254 955.154 741.781 956.036 739.998C956.861 738.184 957.659 736.354 958.43 734.508ZM934.243 775.825C936.483 771.945 939.195 769.04 942.379 767.109C945.531 765.234 948.996 764.352 952.774 764.464C956.52 764.632 960.333 765.835 964.213 768.075C967.261 769.835 969.772 771.95 971.746 774.42C973.719 776.889 975.136 779.555 975.997 782.417C976.913 785.31 977.209 788.253 976.886 791.244C976.619 794.267 975.685 797.165 974.085 799.936C968.709 809.247 961.31 811.183 951.887 805.743C951.056 805.263 950.245 804.684 949.454 804.006C948.631 803.383 948.003 802.872 947.568 802.473L947.146 800.9L959.578 779.367C955.69 777.27 952.185 776.428 949.063 776.843C945.965 777.345 943.425 779.057 941.443 781.977C939.462 784.898 938.229 788.952 937.745 794.142L937.077 794.532L932.235 793.51C932.044 791.922 931.929 790.008 931.892 787.769C931.909 785.562 932.098 783.38 932.457 781.223C932.815 779.065 933.411 777.266 934.243 775.825ZM964.151 782.007L958.24 793.781C957.911 794.478 957.81 794.974 957.935 795.268C958.085 795.65 958.519 796.048 959.24 796.464C961.235 797.616 963.016 798.053 964.581 797.774C966.146 797.495 967.424 796.497 968.416 794.779C969.664 792.617 969.94 790.411 969.243 788.162C968.57 786 966.873 783.948 964.151 782.007ZM894.906 799.798C896.602 796.861 898.589 794.571 900.866 792.93C903.057 791.313 905.391 790.406 907.868 790.211C910.29 789.984 912.693 790.558 915.076 791.934C915.413 793.015 915.703 794.624 915.948 796.76C916.161 798.952 916.293 801.283 916.346 803.752L916.928 804.088C918.907 801.683 921.033 800.177 923.306 799.567C925.635 798.99 927.983 799.275 930.352 800.42C930.773 801.994 931.135 803.607 931.437 805.26C931.708 806.968 931.891 808.699 931.986 810.454L933.649 811.414L928.722 816.107C928.65 814.44 928.485 813.125 928.227 812.164C927.938 811.257 927.488 810.628 926.878 810.276C925.881 809.7 924.776 809.949 923.565 811.024C922.321 812.153 920.981 813.707 919.543 815.685C918.073 817.719 916.512 819.847 914.859 822.071C913.206 824.294 911.466 826.283 909.641 828.037C907.815 829.791 905.908 830.981 903.921 831.607C901.902 832.289 899.811 832.006 897.65 830.758C895.71 829.638 894.177 827.94 893.052 825.665C891.872 823.358 891.169 820.735 890.944 817.797C890.631 814.882 890.828 811.854 891.532 808.714C892.149 805.597 893.274 802.625 894.906 799.798ZM899.234 806.509C898.178 808.339 897.511 810.134 897.234 811.895C896.9 813.624 896.965 815.176 897.427 816.551C897.857 817.982 898.654 819.034 899.818 819.706C900.705 820.218 901.634 820.273 902.604 819.873C903.487 819.496 904.726 818.437 906.321 816.698C907.917 814.959 910.1 812.266 912.871 808.618C912.56 807.109 912.038 805.773 911.305 804.61C910.572 803.448 909.706 802.579 908.709 802.003C907.101 801.075 905.486 800.992 903.864 801.755C902.153 802.541 900.61 804.126 899.234 806.509ZM929.391 823.588C928.239 825.583 928.052 827.508 928.83 829.361C929.575 831.269 931.251 832.975 933.856 834.479C936.738 836.143 939.35 836.802 941.694 836.455C944.037 836.108 945.849 834.827 947.129 832.61C948.281 830.614 948.468 828.69 947.69 826.837C946.913 824.984 945.194 823.289 942.533 821.753C939.707 820.121 937.137 819.451 934.826 819.742C932.483 820.089 930.671 821.371 929.391 823.588ZM924.768 818.924C926.592 815.764 928.746 813.313 931.231 811.57C933.771 809.858 936.422 808.914 939.186 808.735C941.972 808.645 944.696 809.367 947.356 810.903C950.294 812.599 952.495 814.868 953.959 817.708C955.422 820.549 956.068 823.655 955.894 827.028C955.72 830.401 954.689 833.723 952.801 836.993C951.777 838.767 950.742 840.238 949.697 841.409C948.652 842.579 947.762 843.801 947.026 845.076C946.497 846.249 945.873 848.032 945.156 850.426C944.439 852.82 943.737 855.445 943.049 858.3L942.429 858.606L936.651 853.83C937.148 852.713 937.661 851.568 938.19 850.395C938.775 849.255 939.28 848.253 939.704 847.389L939.397 846.769C935.789 847.642 932.406 847.166 929.247 845.342C926.42 843.71 924.346 841.478 923.025 838.646C921.704 835.815 921.162 832.657 921.4 829.173C921.661 825.776 922.784 822.36 924.768 818.924ZM903.792 841.816C902.942 843.543 902.746 844.907 903.202 845.909C903.626 846.967 904.919 848.12 907.08 849.368L923.625 858.92C925.509 860.008 926.928 860.494 927.881 860.38C928.89 860.297 929.794 859.563 930.594 858.177C930.786 857.844 930.966 857.468 931.135 857.048C931.327 856.716 931.423 856.549 931.423 856.549L932.245 856.47L936.114 859.368C935.126 861.976 934.197 864.544 933.329 867.072C932.46 869.601 931.732 871.693 931.145 873.35C930.582 875.093 930.3 875.965 930.3 875.965L929.12 876.282C929.12 876.282 928.752 875.958 928.017 875.312C927.305 874.753 926.371 874.067 925.216 873.252C924.116 872.469 922.972 871.698 921.785 870.938L921.164 871.245C922.745 874.523 923.665 877.603 923.922 880.486C924.179 883.368 923.763 885.752 922.675 887.636C922.163 888.523 921.708 889.184 921.309 889.619C920.933 890.141 920.746 890.402 920.746 890.402L919.889 890.351C919.889 890.351 919.466 889.996 918.619 889.285C917.797 888.663 916.701 887.808 915.332 886.723C913.932 885.692 912.409 884.554 910.763 883.309C909.086 882.118 907.431 881.016 905.801 880L908.54 874.487C911.2 876.023 913.042 876.865 914.066 877.012C915.113 877.247 915.908 876.894 916.452 875.951C916.964 875.065 917.175 873.93 917.086 872.549C916.997 871.167 916.627 869.697 915.975 868.138C915.975 868.138 915.492 867.822 914.526 867.191C913.616 866.591 912.445 865.804 911.012 864.829C909.548 863.91 908.055 862.975 906.536 862.023C905.016 861.072 903.69 860.232 902.558 859.505C901.426 858.777 900.694 858.318 900.361 858.126C898.92 857.294 897.794 856.939 896.984 857.063C896.142 857.242 895.369 857.941 894.665 859.16C894.217 859.936 893.732 860.839 893.212 861.869C892.747 862.93 892.514 863.461 892.514 863.461L891.871 863.422L886.912 859.34C886.912 859.34 887.148 858.996 887.619 858.307C888.091 857.619 888.69 856.708 889.418 855.576C890.058 854.468 890.757 853.32 891.517 852.133C892.221 850.913 892.861 849.805 893.437 848.807C894.397 847.144 895.313 845.493 896.186 843.854C897.058 842.215 897.771 840.852 898.323 839.767C898.844 838.738 899.104 838.223 899.104 838.223L903.792 841.816ZM879.22 871.319L884.073 875.009C883.423 876.776 883.305 878.26 883.72 879.46C884.104 880.716 885.044 881.776 886.54 882.64L904.498 893.008C906.272 894.032 907.635 894.487 908.588 894.372C909.541 894.257 910.402 893.535 911.17 892.204C911.362 891.872 911.546 891.424 911.723 890.861C911.924 890.386 912.024 890.148 912.024 890.148L916.475 893.383C915.664 895.428 914.869 897.444 914.091 899.433C913.335 901.51 912.664 903.376 912.077 905.033C911.514 906.777 911.059 908.14 910.713 909.123C910.336 910.161 910.147 910.68 910.147 910.68L908.385 910.661C907.935 910.031 906.903 909.066 905.29 907.765C903.699 906.551 901.65 905.109 899.141 903.439C896.687 901.801 893.83 899.966 890.568 897.935C887.362 895.937 883.93 893.881 880.272 891.769C878.997 891.033 877.943 890.683 877.109 890.719C876.331 890.787 875.67 891.292 875.126 892.235C874.87 892.678 874.609 893.193 874.345 893.779C874.048 894.421 873.9 894.742 873.9 894.742L873.34 894.751L868.749 890.992C868.749 890.992 868.953 890.703 869.36 890.125C869.712 889.515 870.204 888.728 870.835 887.762C871.379 886.82 871.983 885.838 872.646 884.817C873.222 883.819 873.766 882.877 874.278 881.99C875.046 880.66 875.811 879.143 876.573 877.44C877.303 875.792 877.948 874.354 878.509 873.126C878.983 871.922 879.22 871.319 879.22 871.319ZM921.185 908.074C922.273 906.19 923.631 905.053 925.26 904.663C926.913 904.361 928.598 904.706 930.316 905.698C932.256 906.818 933.484 908.339 933.999 910.263C934.57 912.218 934.295 914.166 933.175 916.105C932.119 917.935 930.765 919 929.113 919.302C927.428 919.66 925.727 919.343 924.009 918.351C922.069 917.231 920.825 915.737 920.278 913.869C919.73 912.001 920.033 910.069 921.185 908.074ZM848.081 925.061C849.489 922.623 851.163 921.003 853.104 920.202C855.012 919.456 857.072 919.537 859.283 920.444L859.916 919.922C859.416 918.229 859.002 916.513 858.677 914.773C858.407 913.065 858.255 911.536 858.221 910.186C858.243 908.869 858.462 907.85 858.878 907.129C860.126 904.968 861.772 903.332 863.817 902.221C865.862 901.111 868.087 900.585 870.492 900.644C872.897 900.702 875.236 901.387 877.509 902.699C879.227 903.691 880.44 904.983 881.147 906.573C881.878 908.252 882.037 909.896 881.625 911.505L876.102 929.711L878.05 930.946C880.433 932.322 882.658 932.757 884.724 932.25C886.758 931.799 888.431 930.437 889.743 928.164C890.639 926.612 891.211 924.725 891.459 922.504C891.763 920.314 891.76 918.207 891.452 916.181L892.216 915.625L898.021 917.091C898.035 919.243 897.937 921.588 897.727 924.127C897.573 926.699 897.316 929.063 896.957 931.221C896.567 933.434 896.099 935.011 895.555 935.954C893.699 939.168 891.68 941.513 889.499 942.988C887.317 944.463 885.095 945.175 882.833 945.125C880.626 945.108 878.442 944.475 876.28 943.227C875.56 942.811 874.499 942.088 873.099 941.057C871.698 940.027 870.175 938.889 868.53 937.643C866.884 936.398 865.306 935.228 863.794 934.133C862.283 933.039 861.056 932.22 860.114 931.676C859.061 931.068 858.085 930.837 857.188 930.984C856.258 931.186 855.521 931.759 854.977 932.701C854.561 933.421 854.311 934.238 854.228 935.151C854.113 936.118 854.065 936.904 854.086 937.508L851.621 937.747C850.998 936.648 850.334 935.304 849.626 933.713C848.974 932.154 848.465 930.604 848.099 929.062C847.788 927.553 847.782 926.219 848.081 925.061ZM865 914.765C864.52 915.597 864.181 916.695 863.985 918.059C863.812 919.511 863.802 920.872 863.955 922.143L871.709 926.953L874.351 916.617C874.731 915.063 874.2 913.87 872.759 913.038C871.318 912.206 869.859 911.917 868.381 912.173C866.927 912.515 865.8 913.38 865 914.765Z" fill="black"/>
<path d="M842.026 325.749C840.362 322.867 839.167 320.157 838.441 317.62C837.692 315.17 837.215 313.192 837.01 311.685C836.86 310.145 836.785 309.376 836.785 309.376L837.565 308.038C837.565 308.038 837.985 307.87 838.825 307.533C839.752 307.219 840.913 306.734 842.307 306.076C843.789 305.443 845.409 304.729 847.168 303.935C848.982 303.11 850.748 302.201 852.467 301.209L856.901 307.738C853.853 309.498 851.63 311.151 850.231 312.697C848.833 314.244 848.186 315.874 848.289 317.588C848.423 319.358 849.163 321.407 850.507 323.734C852.043 326.395 853.857 328.193 855.949 329.128C858.041 330.063 860.112 329.939 862.163 328.755C863.715 327.859 864.693 326.481 865.097 324.622C865.534 322.818 865.679 320.702 865.534 318.273C865.475 315.868 865.337 313.325 865.119 310.643C864.924 307.873 864.899 305.079 865.046 302.26C865.224 299.497 865.843 296.922 866.904 294.536C867.997 292.205 869.846 290.288 872.451 288.784C875.666 286.928 879.065 286.222 882.647 286.666C886.261 287.166 889.705 288.651 892.978 291.121C896.34 293.615 899.268 297.023 901.764 301.346C903.332 304.062 904.53 306.585 905.358 308.915C906.274 311.269 906.889 313.168 907.205 314.611C907.521 316.054 907.679 316.776 907.679 316.776L906.935 317.982C906.935 317.982 906.189 318.227 904.699 318.718C903.264 319.177 901.342 319.88 898.933 320.828C896.612 321.799 894.156 322.921 891.566 324.195L887.515 318.33L887.582 317.294C887.582 317.294 887.903 317.146 888.544 316.849C889.186 316.553 889.895 316.18 890.671 315.732C893.165 314.292 894.571 312.631 894.888 310.748C895.237 308.921 894.563 306.538 892.867 303.601C891.491 301.217 889.773 299.586 887.713 298.706C885.685 297.881 883.812 297.965 882.094 298.957C880.653 299.789 879.666 301.024 879.134 302.662C878.689 304.323 878.503 306.241 878.576 308.415C878.649 310.59 878.759 312.892 878.904 315.32C879.172 318.344 879.297 321.376 879.278 324.416C879.26 327.456 878.741 330.269 877.72 332.853C876.755 335.406 874.859 337.498 872.033 339.13C868.707 341.05 865.21 341.776 861.54 341.308C857.958 340.864 854.482 339.323 851.112 336.687C847.743 334.051 844.714 330.405 842.026 325.749ZM889.956 341.759C891.342 340.959 892.239 340.145 892.648 339.317C893.057 338.49 892.974 337.577 892.398 336.58C892.11 336.081 891.783 335.642 891.416 335.262C891.104 334.851 890.949 334.645 890.949 334.645L896.059 332.36C897.272 333.95 898.514 335.525 899.783 337.083C901.139 338.664 902.388 340.123 903.529 341.46C904.726 342.764 905.663 343.812 906.342 344.603C907.052 345.449 907.407 345.872 907.407 345.872L906.509 347.388C905.596 347.472 904.256 347.839 902.489 348.49C900.754 349.196 898.713 350.079 896.368 351.137C894.079 352.163 891.655 353.341 889.097 354.67C886.594 355.967 884.096 357.336 881.601 358.776C877.112 361.368 875.875 364.41 877.891 367.901C878.627 369.176 879.68 370.231 881.049 371.067C882.505 371.925 883.898 372.673 885.226 373.311L902.353 363.423C903.96 362.495 904.869 361.637 905.08 360.85C905.379 360.087 905.139 358.969 904.363 357.496C904.235 357.274 904.031 356.985 903.752 356.629C903.56 356.296 903.448 356.102 903.416 356.047L908.539 353.976C909.816 355.677 911.106 357.335 912.407 358.948C913.795 360.585 915.032 362.088 916.118 363.456C917.259 364.793 918.185 365.884 918.895 366.731C919.606 367.577 919.961 368 919.961 368L919.062 369.516C918.007 369.608 916.025 370.272 913.118 371.507C910.265 372.711 906.891 374.29 902.994 376.244C899.097 378.198 895.042 380.391 890.83 382.823C889.777 383.431 889.089 384.161 888.767 385.012C888.478 385.918 888.605 386.842 889.149 387.784C889.533 388.45 890.012 389.023 890.586 389.505C891.215 389.954 891.752 390.309 892.198 390.569C892.643 390.829 892.866 390.959 892.866 390.959L891.924 393.166C891.924 393.166 891.392 393.141 890.328 393.09C889.319 393.007 888.032 392.826 886.467 392.547C884.99 392.292 883.519 391.922 882.056 391.436C880.649 390.918 879.547 390.225 878.749 389.355C875.805 384.256 876.307 380.197 880.254 377.179L880.203 376.322C876.96 375.312 874.232 374.3 872.021 373.286C869.842 372.327 868.56 371.515 868.176 370.85C865.744 366.638 864.775 362.911 865.268 359.67C865.762 356.429 867.699 353.833 871.08 351.881L889.956 341.759ZM891.393 398.006C892.463 399.605 893.547 400.458 894.643 400.564C895.771 400.726 897.415 400.182 899.577 398.934L916.122 389.382C918.006 388.294 919.137 387.309 919.514 386.426C919.947 385.511 919.763 384.361 918.963 382.975C918.771 382.643 918.535 382.299 918.256 381.943C918.064 381.61 917.968 381.444 917.968 381.444L918.31 380.692L922.755 378.791C924.519 380.95 926.278 383.038 928.034 385.055C929.789 387.071 931.237 388.748 932.378 390.084C933.607 391.444 934.221 392.124 934.221 392.124L933.905 393.304C933.905 393.304 933.441 393.461 932.514 393.775C931.674 394.112 930.612 394.577 929.329 395.17C928.101 395.731 926.861 396.336 925.61 396.985L925.565 397.676C929.194 397.945 932.321 398.689 934.947 399.908C937.572 401.127 939.428 402.679 940.516 404.563C941.028 405.45 941.373 406.175 941.55 406.737C941.814 407.324 941.947 407.617 941.947 407.617L941.474 408.333C941.474 408.333 940.954 408.522 939.916 408.9C938.965 409.301 937.678 409.823 936.053 410.465C934.461 411.163 932.714 411.913 930.812 412.715C928.943 413.573 927.16 414.454 925.466 415.359L922.061 410.23C924.721 408.694 926.371 407.519 927.011 406.707C927.738 405.918 927.829 405.052 927.285 404.11C926.773 403.223 925.896 402.473 924.655 401.859C923.414 401.246 921.956 400.831 920.28 400.616C920.28 400.616 919.765 400.877 918.735 401.397C917.761 401.886 916.494 402.507 914.933 403.26C913.405 404.068 911.848 404.893 910.265 405.734C908.681 406.574 907.291 407.303 906.095 407.919C904.899 408.536 904.135 408.94 903.802 409.132C902.361 409.964 901.491 410.762 901.193 411.525C900.927 412.344 901.146 413.363 901.85 414.583C902.298 415.359 902.837 416.229 903.469 417.195C904.156 418.129 904.499 418.596 904.499 418.596L904.144 419.133L898.129 421.386C898.129 421.386 897.949 421.01 897.588 420.258C897.228 419.505 896.739 418.531 896.122 417.335C895.482 416.226 894.838 415.046 894.19 413.795C893.486 412.576 892.846 411.467 892.27 410.47C891.31 408.807 890.338 407.188 889.354 405.612C888.371 404.037 887.548 402.739 886.884 401.718C886.253 400.752 885.937 400.269 885.937 400.269L891.393 398.006ZM886.095 445.087L891.551 442.824C892.613 444.28 893.605 445.038 894.526 445.097C895.479 445.212 896.969 444.721 898.996 443.625C900.082 443.072 901.416 442.376 903 441.535C904.528 440.727 906.112 439.886 907.752 439.013C909.336 438.173 910.737 437.401 911.957 436.697L935.485 423.113C937.369 422.025 938.496 420.968 938.864 419.942C939.265 418.972 939.017 417.711 938.121 416.159L937.497 415.078L937.721 414.505L942.284 412.425C944.112 414.695 945.892 416.882 947.624 418.986C949.411 421.058 950.86 422.734 951.969 424.016C953.165 425.32 953.764 425.972 953.764 425.972L953.364 427.201C953.364 427.201 952.702 427.398 951.378 427.793C950.142 428.211 948.882 428.717 947.599 429.31L947.375 429.883C950.618 430.892 953.155 431.83 954.984 432.695C956.869 433.528 957.972 434.221 958.292 434.776C960.18 438.046 961.08 441.332 960.991 444.635C960.935 447.993 959.921 451.165 957.95 454.151C956.034 457.104 953.247 459.637 949.589 461.749C946.318 463.637 943.033 464.795 939.733 465.222C936.52 465.673 933.367 465.461 930.275 464.586C927.271 463.734 924.458 462.254 921.837 460.146C919.303 458.062 917.109 455.412 915.253 452.197C915.029 451.809 914.768 451.294 914.472 450.653C914.207 450.067 913.975 449.536 913.774 449.06C913.518 448.617 913.39 448.395 913.39 448.395C912.171 449.099 910.924 449.819 909.649 450.555C908.351 451.379 907.036 452.174 905.706 452.942C903.545 454.19 902.144 455.221 901.505 456.033C900.865 456.846 900.93 457.917 901.698 459.247C902.05 459.857 902.445 460.478 902.885 461.111C903.356 461.8 903.672 462.283 903.832 462.56L903.595 462.918L897.996 464.932C897.804 464.599 897.496 464.001 897.071 463.138C896.623 462.362 896.139 461.459 895.618 460.429C895.074 459.487 894.514 458.517 893.938 457.52C893.362 456.522 892.85 455.635 892.402 454.859C891.506 453.307 890.582 451.771 889.631 450.251C888.624 448.763 887.789 447.509 887.126 446.488C886.439 445.554 886.095 445.087 886.095 445.087ZM923.667 451.219C925.235 453.935 927.448 455.465 930.308 455.81C933.223 456.122 936.564 455.19 940.333 453.014C943.049 451.446 945.197 449.726 946.776 447.854C948.387 446.036 949.352 444.187 949.669 442.304C950.073 440.444 949.795 438.683 948.835 437.021C948.387 436.245 947.594 435.446 946.455 434.626C945.372 433.773 944.154 433.072 942.802 432.523C940.577 433.66 938.185 434.893 935.627 436.222C933.1 437.607 930.574 438.991 928.048 440.376C925.609 441.784 923.365 443.08 921.314 444.264C921.444 445.001 921.679 446.048 922.019 447.404C922.413 448.728 922.963 450 923.667 451.219ZM936.908 476.842C937.979 478.441 939.062 479.293 940.158 479.399C941.286 479.561 942.931 479.018 945.093 477.77L961.637 468.218C963.522 467.13 964.653 466.144 965.03 465.262C965.462 464.347 965.278 463.196 964.478 461.811C964.286 461.478 964.051 461.134 963.771 460.778C963.579 460.445 963.483 460.279 963.483 460.279L963.825 459.528L968.27 457.626C970.034 459.786 971.794 461.874 973.549 463.89C975.305 465.906 976.753 467.583 977.894 468.919C979.123 470.279 979.737 470.959 979.737 470.959L979.421 472.14C979.421 472.14 978.957 472.296 978.03 472.61C977.19 472.947 976.128 473.412 974.845 474.006C973.617 474.567 972.377 475.172 971.126 475.82L971.081 476.511C974.71 476.781 977.837 477.525 980.462 478.744C983.087 479.962 984.944 481.514 986.032 483.398C986.544 484.285 986.888 485.01 987.065 485.573C987.33 486.159 987.462 486.452 987.462 486.452L986.989 487.169C986.989 487.169 986.47 487.358 985.432 487.735C984.481 488.136 983.193 488.658 981.569 489.301C979.976 489.998 978.229 490.748 976.328 491.551C974.458 492.408 972.676 493.289 970.981 494.194L967.577 489.065C970.237 487.529 971.887 486.355 972.526 485.542C973.253 484.753 973.345 483.887 972.801 482.945C972.289 482.058 971.412 481.308 970.171 480.695C968.93 480.081 967.471 479.667 965.795 479.452C965.795 479.452 965.281 479.712 964.251 480.233C963.277 480.721 962.009 481.342 960.449 482.095C958.92 482.904 957.364 483.728 955.78 484.569C954.196 485.41 952.806 486.138 951.61 486.755C950.414 487.371 949.65 487.776 949.318 487.968C947.877 488.8 947.007 489.597 946.709 490.361C946.442 491.18 946.661 492.199 947.365 493.418C947.813 494.194 948.353 495.065 948.984 496.03C949.671 496.964 950.015 497.431 950.015 497.431L949.66 497.968L943.645 500.222C943.645 500.222 943.464 499.846 943.104 499.093C942.743 498.34 942.255 497.366 941.638 496.17C940.998 495.062 940.354 493.882 939.705 492.63C939.001 491.411 938.361 490.303 937.785 489.305C936.825 487.642 935.854 486.023 934.87 484.448C933.887 482.872 933.063 481.574 932.4 480.553C931.768 479.587 931.453 479.105 931.453 479.105L936.908 476.842ZM960.421 530.816C958.181 526.936 957.021 523.135 956.941 519.412C956.893 515.745 957.862 512.303 959.848 509.087C961.866 505.927 964.815 503.226 968.695 500.986C971.743 499.226 974.83 498.109 977.956 497.635C981.082 497.16 984.099 497.266 987.007 497.952C989.971 498.605 992.667 499.82 995.097 501.595C997.581 503.338 999.623 505.596 1001.22 508.367C1006.6 517.678 1004.58 525.054 995.154 530.494C994.322 530.974 993.415 531.387 992.433 531.733C991.482 532.134 990.725 532.423 990.162 532.6L988.588 532.179L976.156 510.646C972.396 512.965 969.915 515.579 968.713 518.49C967.599 521.424 967.811 524.48 969.35 527.656C970.888 530.832 973.783 533.927 978.036 536.941L978.039 537.715L974.733 541.397C973.262 540.769 971.548 539.911 969.59 538.824C967.688 537.705 965.892 536.451 964.203 535.062C962.514 533.672 961.253 532.257 960.421 530.816ZM980.729 508.006L987.97 519.012C988.41 519.645 988.788 519.981 989.106 520.019C989.511 520.08 990.074 519.903 990.794 519.487C992.79 518.335 994.058 517.012 994.599 515.517C995.14 514.022 994.915 512.416 993.923 510.698C992.675 508.536 990.902 507.194 988.606 506.673C986.397 506.175 983.771 506.619 980.729 508.006ZM978.657 562.401C977.377 560.184 976.451 558.132 975.879 556.245C975.307 554.359 974.915 552.848 974.704 551.714C974.58 550.603 974.518 550.048 974.518 550.048L975.061 549.069C975.901 548.732 977.018 548.235 978.412 547.577C979.839 546.976 981.277 546.33 982.726 545.641C984.263 544.975 985.574 544.366 986.659 543.814L989.715 548.146C986.92 549.834 985.182 551.687 984.501 553.706C983.819 555.726 984.182 557.955 985.59 560.394C986.518 562.001 987.619 563.139 988.892 563.808C990.22 564.445 991.411 564.46 992.464 563.852C993.24 563.404 993.789 562.754 994.111 561.904C994.464 561.108 994.65 559.893 994.666 558.257C994.77 556.645 994.709 554.427 994.482 551.602C994.114 547.38 994.357 544.025 995.211 541.537C996.12 539.016 997.739 537.084 1000.07 535.74C1002.62 534.268 1005.25 533.709 1007.97 534.062C1010.68 534.415 1013.32 535.59 1015.88 537.587C1018.49 539.552 1020.76 542.197 1022.68 545.523C1024.24 548.239 1025.27 550.6 1025.77 552.606C1026.29 554.667 1026.55 555.698 1026.55 555.698L1025.96 556.594C1025.96 556.594 1025.37 556.787 1024.19 557.173C1023.1 557.583 1021.64 558.129 1019.82 558.812C1018.08 559.519 1016.25 560.317 1014.33 561.206L1011.31 556.743C1011.31 556.743 1011.5 556.631 1011.89 556.407C1012.31 556.238 1012.63 556.09 1012.85 555.962C1014.79 554.842 1015.93 553.555 1016.27 552.1C1016.67 550.614 1016.3 548.873 1015.14 546.878C1014.28 545.381 1013.2 544.342 1011.9 543.761C1010.69 543.202 1009.56 543.227 1008.51 543.835C1007.46 544.443 1006.74 545.447 1006.37 546.846C1006.03 548.3 1005.93 550.313 1006.09 552.884C1006.44 556.963 1006.5 560.257 1006.25 562.766C1006.05 565.244 1005.51 567.183 1004.62 568.584C1003.76 570.041 1002.5 571.249 1000.84 572.209C998.564 573.521 996.026 573.989 993.222 573.613C990.474 573.204 987.793 572.017 985.181 570.052C982.656 568.111 980.481 565.56 978.657 562.401ZM1008.43 613.964C1007.02 611.525 1006.45 609.265 1006.73 607.184C1007.04 605.158 1008.14 603.415 1010.03 601.954L1009.89 601.145C1008.18 600.732 1006.48 600.231 1004.81 599.643C1003.2 599.023 1001.8 598.391 1000.61 597.745C999.485 597.067 998.711 596.368 998.295 595.648C997.047 593.486 996.454 591.242 996.515 588.916C996.576 586.59 997.233 584.4 998.486 582.346C999.739 580.292 1001.5 578.61 1003.77 577.298C1005.49 576.306 1007.22 575.901 1008.95 576.084C1010.77 576.29 1012.27 576.974 1013.46 578.136L1026.46 592.021L1028.51 590.953C1030.89 589.577 1032.38 587.867 1032.97 585.824C1033.6 583.837 1033.26 581.707 1031.95 579.435C1031.05 577.883 1029.7 576.444 1027.9 575.118C1026.16 573.761 1024.33 572.709 1022.42 571.963L1022.32 571.023L1026.49 566.73C1028.36 567.793 1030.35 569.05 1032.44 570.502C1034.59 571.921 1036.51 573.326 1038.2 574.715C1039.92 576.16 1041.05 577.354 1041.6 578.296C1043.45 581.511 1044.47 584.432 1044.66 587.058C1044.85 589.685 1044.35 591.966 1043.18 593.9C1042.06 595.802 1040.42 597.377 1038.26 598.625C1037.54 599.041 1036.38 599.598 1034.79 600.296C1033.2 600.993 1031.45 601.743 1029.55 602.546C1027.65 603.348 1025.84 604.13 1024.14 604.892C1022.44 605.653 1021.11 606.306 1020.17 606.85C1019.12 607.458 1018.43 608.188 1018.11 609.039C1017.82 609.945 1017.95 610.869 1018.49 611.811C1018.91 612.532 1019.49 613.156 1020.24 613.685C1021.02 614.269 1021.68 614.703 1022.21 614.986L1021.18 617.241C1019.92 617.231 1018.42 617.134 1016.69 616.951C1015.02 616.737 1013.42 616.402 1011.9 615.949C1010.44 615.463 1009.28 614.801 1008.43 613.964ZM1007.97 594.164C1008.45 594.995 1009.23 595.837 1010.31 596.69C1011.49 597.565 1012.66 598.255 1013.84 598.758L1021.88 594.447L1014.25 586.991C1013.09 585.885 1011.79 585.748 1010.35 586.58C1008.91 587.412 1007.93 588.532 1007.41 589.939C1006.98 591.37 1007.17 592.778 1007.97 594.164Z" fill="black"/>
<path d="M471.204 310.614L471.972 304.374C474.852 304.118 476.964 303.734 478.308 303.222C479.652 302.71 480.516 301.782 480.9 300.438C481.348 299.03 481.572 296.95 481.572 294.198V255.702C478.948 255.83 476.868 256.022 475.332 256.278C473.796 256.534 472.612 257.078 471.78 257.91C471.012 258.742 470.436 259.99 470.052 261.654C469.668 263.254 469.348 265.462 469.092 268.278L461.22 268.854C461.412 266.678 461.572 264.374 461.7 261.942C461.892 259.446 462.02 257.014 462.084 254.646C462.212 252.278 462.308 250.198 462.372 248.406L463.428 247.35L472.932 248.406H502.884L512.58 247.35L513.636 248.406C513.7 250.518 513.764 252.822 513.828 255.318C513.892 257.75 513.988 260.086 514.116 262.326C514.308 264.566 514.468 266.55 514.596 268.278L506.724 268.854C506.404 265.846 506.052 263.478 505.668 261.75C505.284 260.022 504.708 258.774 503.94 258.006C503.236 257.174 502.148 256.63 500.676 256.374C499.268 256.054 497.348 255.83 494.916 255.702C494.724 257.942 494.564 260.726 494.436 264.054C494.308 267.318 494.212 270.87 494.148 274.71C494.084 278.486 493.988 282.326 493.86 286.23C493.796 290.134 493.764 293.782 493.764 297.174C493.764 299.606 494.18 301.334 495.012 302.358C495.844 303.318 497.188 303.798 499.044 303.798C500.644 303.798 502.34 303.702 504.132 303.51L504.516 303.99L503.652 310.422C501.988 310.358 500.1 310.294 497.988 310.23C495.876 310.166 493.828 310.102 491.844 310.038C489.86 310.038 488.292 310.038 487.14 310.038C486.052 310.038 484.58 310.038 482.724 310.038C480.932 310.102 479.012 310.166 476.964 310.23C474.98 310.358 473.06 310.486 471.204 310.614ZM518.214 304.566C520.134 304.438 521.414 303.926 522.054 303.03C522.758 302.134 523.11 300.438 523.11 297.942V278.838C523.11 276.662 522.822 275.19 522.246 274.422C521.67 273.59 520.582 273.174 518.982 273.174C518.598 273.174 518.182 273.206 517.734 273.27C517.35 273.27 517.158 273.27 517.158 273.27L516.678 272.598L517.254 267.798C520.006 267.35 522.694 266.87 525.318 266.358C527.942 265.846 530.118 265.43 531.846 265.11C533.638 264.726 534.534 264.534 534.534 264.534L535.398 265.398C535.398 265.398 535.302 265.878 535.11 266.838C534.982 267.734 534.854 268.886 534.726 270.294C534.598 271.638 534.502 273.014 534.438 274.422L535.014 274.806C537.062 271.798 539.27 269.462 541.638 267.798C544.006 266.134 546.278 265.302 548.454 265.302C549.478 265.302 550.278 265.366 550.854 265.494C551.494 265.558 551.814 265.59 551.814 265.59L552.198 266.358C552.198 266.358 552.102 266.902 551.91 267.99C551.782 269.014 551.59 270.39 551.334 272.118C551.142 273.846 550.918 275.734 550.662 277.782C550.47 279.83 550.342 281.814 550.278 283.734L544.134 284.118C544.134 281.046 543.942 279.03 543.558 278.07C543.238 277.046 542.534 276.534 541.446 276.534C540.422 276.534 539.334 276.918 538.182 277.686C537.03 278.454 535.942 279.51 534.918 280.854C534.918 280.854 534.886 281.43 534.822 282.582C534.758 283.67 534.662 285.078 534.534 286.806C534.47 288.534 534.406 290.294 534.342 292.086C534.278 293.878 534.214 295.446 534.15 296.79C534.086 298.134 534.054 298.998 534.054 299.382C534.054 301.046 534.31 302.198 534.822 302.838C535.398 303.478 536.39 303.798 537.798 303.798C538.694 303.798 539.718 303.766 540.87 303.702C542.022 303.574 542.598 303.51 542.598 303.51L542.886 304.086L541.83 310.422C541.83 310.422 541.414 310.39 540.582 310.326C539.75 310.262 538.662 310.198 537.318 310.134C536.038 310.134 534.694 310.102 533.286 310.038C531.878 310.038 530.598 310.038 529.446 310.038C527.526 310.038 525.638 310.07 523.782 310.134C521.926 310.198 520.39 310.262 519.174 310.326C518.022 310.39 517.446 310.422 517.446 310.422L518.214 304.566ZM556.051 311.094L556.819 305.046C558.675 304.726 560.019 304.086 560.851 303.126C561.747 302.166 562.195 300.822 562.195 299.094V278.358C562.195 276.31 561.907 274.902 561.331 274.134C560.755 273.366 559.699 272.982 558.163 272.982C557.779 272.982 557.299 273.046 556.723 273.174C556.211 273.238 555.955 273.27 555.955 273.27L556.531 267.798C558.707 267.478 560.851 267.158 562.963 266.838C565.139 266.454 567.091 266.102 568.819 265.782C570.611 265.398 572.019 265.11 573.043 264.918C574.131 264.726 574.675 264.63 574.675 264.63L575.539 266.166C575.219 266.87 574.899 268.246 574.579 270.294C574.323 272.278 574.099 274.774 573.907 277.782C573.715 280.726 573.555 284.118 573.427 287.958C573.299 291.734 573.235 295.734 573.235 299.958C573.235 301.43 573.459 302.518 573.907 303.222C574.355 303.862 575.123 304.182 576.211 304.182C576.723 304.182 577.299 304.15 577.939 304.086C578.643 304.022 578.995 303.99 578.995 303.99L579.283 304.47L578.323 310.326C578.323 310.326 577.971 310.294 577.267 310.23C576.563 310.23 575.635 310.198 574.483 310.134C573.395 310.134 572.243 310.102 571.027 310.038C569.875 310.038 568.787 310.038 567.763 310.038C566.227 310.038 564.531 310.134 562.675 310.326C560.883 310.518 559.315 310.678 557.971 310.806C556.691 310.998 556.051 311.094 556.051 311.094ZM566.899 256.374C564.723 256.374 563.059 255.766 561.907 254.55C560.819 253.27 560.275 251.638 560.275 249.654C560.275 247.414 560.979 245.59 562.387 244.182C563.795 242.71 565.619 241.974 567.859 241.974C569.971 241.974 571.571 242.614 572.659 243.894C573.811 245.174 574.387 246.806 574.387 248.79C574.387 251.03 573.715 252.854 572.371 254.262C571.027 255.67 569.203 256.374 566.899 256.374ZM597.81 311.19C595.25 311.19 593.01 310.966 591.09 310.518C589.17 310.07 587.666 309.654 586.578 309.27C585.554 308.822 585.042 308.598 585.042 308.598L584.466 307.638C584.594 306.742 584.722 305.526 584.85 303.99C585.042 302.454 585.202 300.886 585.33 299.286C585.522 297.622 585.65 296.182 585.714 294.966L590.994 294.486C591.058 297.75 591.794 300.182 593.202 301.782C594.61 303.382 596.722 304.182 599.538 304.182C601.394 304.182 602.93 303.798 604.146 303.03C605.362 302.198 605.97 301.174 605.97 299.958C605.97 299.062 605.682 298.262 605.106 297.558C604.594 296.854 603.634 296.086 602.226 295.254C600.882 294.358 598.93 293.302 596.37 292.086C592.53 290.294 589.746 288.406 588.018 286.422C586.29 284.374 585.426 282.006 585.426 279.318C585.426 276.374 586.258 273.814 587.922 271.638C589.586 269.462 591.922 267.766 594.93 266.55C597.938 265.27 601.362 264.63 605.202 264.63C608.338 264.63 610.898 264.918 612.882 265.494C614.93 266.07 615.954 266.358 615.954 266.358L616.434 267.318C616.434 267.318 616.306 267.926 616.05 269.142C615.858 270.294 615.602 271.83 615.282 273.75C615.026 275.606 614.802 277.59 614.61 279.702L609.234 280.086C609.234 280.086 609.234 279.862 609.234 279.414C609.298 278.966 609.33 278.614 609.33 278.358C609.33 276.118 608.786 274.486 607.698 273.462C606.61 272.374 604.914 271.83 602.61 271.83C600.882 271.83 599.442 272.246 598.29 273.078C597.202 273.846 596.658 274.838 596.658 276.054C596.658 277.27 597.17 278.39 598.194 279.414C599.282 280.438 600.978 281.526 603.282 282.678C606.994 284.406 609.874 286.006 611.922 287.478C613.97 288.886 615.378 290.326 616.146 291.798C616.978 293.27 617.394 294.966 617.394 296.886C617.394 299.51 616.53 301.942 614.802 304.182C613.074 306.358 610.706 308.086 607.698 309.366C604.754 310.582 601.458 311.19 597.81 311.19ZM640.454 311.19C635.91 311.19 632.582 310.23 630.47 308.31C628.358 306.39 627.302 303.414 627.302 299.382V277.974C627.302 275.99 626.95 274.646 626.246 273.942C625.542 273.238 624.166 272.854 622.118 272.79L621.158 272.118L621.83 267.414C623.878 266.454 625.862 265.398 627.782 264.246C629.702 263.03 631.398 261.91 632.87 260.886C634.406 259.798 635.622 258.934 636.518 258.294C637.414 257.59 637.862 257.238 637.862 257.238L640.55 258.582C640.55 258.582 640.422 259.318 640.166 260.79C639.974 262.198 639.75 264.214 639.494 266.838L650.822 266.55L651.206 267.03L650.246 273.462L638.918 273.174C638.726 275.926 638.566 279.062 638.438 282.582C638.374 286.038 638.342 289.878 638.342 294.102C638.342 296.854 638.822 298.838 639.782 300.054C640.742 301.27 642.31 301.878 644.486 301.878C645.894 301.878 647.206 301.654 648.422 301.206C649.638 300.758 650.246 300.534 650.246 300.534L651.494 303.606C651.494 303.606 651.046 303.99 650.15 304.758C649.318 305.526 648.262 306.422 646.982 307.446C645.766 308.406 644.55 309.27 643.334 310.038C642.118 310.806 641.158 311.19 640.454 311.19ZM676.745 311.19C672.265 311.19 668.393 310.294 665.129 308.502C661.929 306.71 659.433 304.15 657.641 300.822C655.913 297.494 655.049 293.59 655.049 289.11C655.049 285.59 655.625 282.358 656.777 279.414C657.929 276.47 659.529 273.91 661.577 271.734C663.625 269.494 666.025 267.766 668.777 266.55C671.529 265.27 674.505 264.63 677.705 264.63C688.457 264.63 693.833 270.07 693.833 280.95C693.833 281.91 693.737 282.902 693.545 283.926C693.417 284.95 693.289 285.75 693.161 286.326L692.009 287.478H667.145C667.273 291.894 668.297 295.35 670.217 297.846C672.201 300.278 674.953 301.622 678.473 301.878C681.993 302.134 686.121 301.174 690.857 298.998L691.529 299.382L693.065 304.086C691.785 305.046 690.185 306.102 688.265 307.254C686.345 308.342 684.361 309.27 682.313 310.038C680.265 310.806 678.409 311.19 676.745 311.19ZM667.145 282.198L680.297 281.43C681.065 281.366 681.545 281.206 681.737 280.95C681.993 280.63 682.121 280.054 682.121 279.222C682.121 276.918 681.609 275.158 680.585 273.942C679.561 272.726 678.057 272.118 676.073 272.118C673.577 272.118 671.529 272.982 669.929 274.71C668.393 276.374 667.465 278.87 667.145 282.198ZM698.912 307.35L723.2 271.83L714.368 272.406C712.128 272.598 710.368 272.982 709.088 273.558C707.872 274.07 707.008 274.902 706.496 276.054C705.984 277.142 705.632 278.742 705.44 280.854L700.64 281.43C700.64 281.43 700.672 280.918 700.736 279.894C700.864 278.806 700.992 277.462 701.12 275.862C701.248 274.198 701.344 272.47 701.408 270.678C701.536 268.822 701.632 267.094 701.696 265.494L702.272 264.918L714.752 265.686L736.928 265.974L738.176 268.758C734.272 273.878 730.624 278.806 727.232 283.542C723.904 288.278 720.992 292.47 718.496 296.118C716.064 299.702 714.272 302.358 713.12 304.086L723.488 303.222C726.24 302.966 728.32 301.974 729.728 300.246C731.136 298.454 732.096 295.67 732.608 291.894L737.6 291.414C737.6 291.414 737.504 291.99 737.312 293.142C737.184 294.294 736.992 295.766 736.736 297.558C736.544 299.35 736.352 301.27 736.16 303.318C736.032 305.302 735.968 307.19 735.968 308.982L734.528 310.518L705.824 309.846L700.544 310.422L698.912 307.35ZM777.537 311.19C774.721 311.19 772.481 310.55 770.817 309.27C769.217 307.99 768.257 306.166 767.937 303.798L767.169 303.51C765.953 304.79 764.673 306.006 763.329 307.158C761.985 308.246 760.737 309.142 759.585 309.846C758.433 310.486 757.441 310.806 756.609 310.806C754.113 310.806 751.873 310.198 749.889 308.982C747.905 307.766 746.337 306.102 745.185 303.99C744.033 301.878 743.457 299.51 743.457 296.886C743.457 294.902 743.969 293.206 744.993 291.798C746.081 290.326 747.425 289.366 749.025 288.918L767.553 284.598L767.649 282.294C767.649 279.542 766.913 277.398 765.441 275.862C764.033 274.326 762.017 273.558 759.393 273.558C757.601 273.558 755.681 274.006 753.633 274.902C751.585 275.734 749.761 276.79 748.161 278.07L747.297 277.686L745.665 271.926C747.521 270.838 749.601 269.75 751.905 268.662C754.209 267.51 756.385 266.55 758.433 265.782C760.545 265.014 762.145 264.63 763.233 264.63C766.945 264.63 769.985 265.206 772.353 266.358C774.721 267.51 776.449 269.078 777.537 271.062C778.625 272.982 779.169 275.19 779.169 277.686C779.169 278.518 779.073 279.798 778.881 281.526C778.689 283.254 778.465 285.142 778.209 287.19C777.953 289.238 777.729 291.19 777.537 293.046C777.345 294.902 777.249 296.374 777.249 297.462C777.249 298.678 777.537 299.638 778.113 300.342C778.753 301.046 779.617 301.398 780.705 301.398C781.537 301.398 782.369 301.206 783.201 300.822C784.097 300.438 784.801 300.086 785.313 299.766L786.753 301.782C786.113 302.87 785.281 304.118 784.257 305.526C783.233 306.87 782.145 308.086 780.993 309.174C779.841 310.198 778.689 310.87 777.537 311.19ZM760.161 301.686C761.121 301.686 762.241 301.43 763.521 300.918C764.865 300.342 766.049 299.67 767.073 298.902L767.361 289.782L757.089 292.662C755.553 293.11 754.785 294.166 754.785 295.83C754.785 297.494 755.265 298.902 756.225 300.054C757.249 301.142 758.561 301.686 760.161 301.686Z" fill="black"/>
<path d="M305.912 535.865C304.888 537.639 303.29 538.933 301.12 539.749C298.925 540.478 296.201 540.716 292.948 540.463L274.14 539.248L270.732 545.151L280.03 550.741C281.915 551.829 283.364 552.518 284.379 552.809C285.426 553.043 286.328 552.825 287.085 552.154C287.874 551.427 288.808 550.193 289.888 548.451L290.531 548.49L295.17 552.166C295.17 552.166 294.918 552.538 294.415 553.282C293.967 554.058 293.379 555.012 292.652 556.144C291.98 557.308 291.248 558.511 290.457 559.754C289.753 560.973 289.129 562.054 288.585 562.996C287.537 564.682 286.513 566.456 285.513 568.317C284.6 570.155 283.803 571.727 283.122 573.034C282.529 574.317 282.232 574.959 282.232 574.959L277.177 571.043C278.244 568.555 278.53 566.651 278.036 565.331C277.574 563.955 276.151 562.58 273.768 561.204L241.593 542.628C239.986 541.7 238.793 541.27 238.015 541.338C237.269 541.35 236.592 541.883 235.984 542.936C235.664 543.49 235.339 544.116 235.011 544.813C234.682 545.51 234.518 545.859 234.518 545.859L233.565 545.974L229.008 542.345C229.008 542.345 229.244 542.001 229.716 541.313C230.164 540.537 230.735 539.61 231.431 538.534C232.103 537.37 232.775 536.206 233.447 535.042C234.119 533.878 234.695 532.881 235.175 532.049C235.655 531.218 236.295 530.109 237.095 528.724C237.839 527.306 238.584 525.888 239.328 524.471C240.105 522.998 240.765 521.79 241.309 520.848C241.83 519.818 242.09 519.303 242.09 519.303C245.706 513.04 249.709 508.922 254.1 506.949C258.491 504.976 262.986 505.318 267.587 507.974C270.857 509.862 273.29 512.56 274.886 516.068C276.482 519.575 277.154 523.659 276.903 528.317L293.016 527.865C296.406 527.753 299.099 527.313 301.095 526.544C303.036 525.743 304.518 524.455 305.542 522.682L306.626 522.532L310.613 525.61L305.912 535.865ZM268.794 533.723C268.884 533.184 268.931 532.398 268.935 531.366C268.972 530.279 268.826 529.123 268.498 527.899C268.202 526.62 267.577 525.335 266.622 524.044C265.699 522.699 264.296 521.482 262.411 520.394C259.363 518.634 256.498 518.347 253.818 519.534C251.137 520.721 248.565 523.448 246.101 527.716C245.781 528.27 245.668 528.722 245.762 529.072C245.887 529.366 246.322 529.765 247.066 530.268C250.351 532.387 253.292 534.269 255.888 535.916C258.485 537.563 261.069 539.166 263.642 540.725L268.794 533.723ZM329.478 494.28C328.07 496.718 326.395 498.338 324.455 499.139C322.546 499.885 320.487 499.804 318.276 498.898L317.643 499.419C318.143 501.112 318.556 502.828 318.882 504.568C319.152 506.276 319.304 507.805 319.338 509.155C319.316 510.472 319.097 511.491 318.681 512.212C317.433 514.373 315.786 516.009 313.741 517.12C311.696 518.23 309.471 518.756 307.066 518.697C304.661 518.639 302.322 517.954 300.05 516.642C298.332 515.65 297.119 514.358 296.412 512.768C295.681 511.089 295.521 509.445 295.933 507.836L301.456 489.63L299.509 488.395C297.126 487.019 294.901 486.584 292.835 487.091C290.8 487.543 289.127 488.904 287.815 491.177C286.919 492.729 286.347 494.616 286.099 496.837C285.796 499.027 285.798 501.134 286.107 503.16L285.342 503.716L279.538 502.25C279.524 500.098 279.621 497.753 279.831 495.214C279.986 492.642 280.242 490.278 280.601 488.12C280.992 485.907 281.459 484.33 282.003 483.387C283.859 480.173 285.878 477.828 288.06 476.353C290.242 474.878 292.464 474.166 294.726 474.216C296.932 474.233 299.117 474.866 301.278 476.114C301.999 476.53 303.059 477.254 304.46 478.284C305.86 479.314 307.383 480.452 309.029 481.698C310.675 482.943 312.253 484.113 313.764 485.208C315.276 486.302 316.503 487.121 317.445 487.665C318.498 488.273 319.473 488.504 320.371 488.357C321.301 488.155 322.037 487.582 322.581 486.64C322.997 485.92 323.247 485.103 323.331 484.191C323.446 483.223 323.493 482.437 323.472 481.834L325.938 481.594C326.56 482.693 327.225 484.037 327.932 485.628C328.584 487.187 329.093 488.737 329.46 490.279C329.77 491.788 329.776 493.122 329.478 494.28ZM312.559 504.576C313.039 503.744 313.377 502.646 313.574 501.282C313.747 499.83 313.757 498.469 313.604 497.198L305.85 492.388L303.208 502.724C302.828 504.278 303.358 505.472 304.799 506.304C306.241 507.136 307.7 507.424 309.178 507.168C310.632 506.826 311.759 505.961 312.559 504.576ZM335.558 483.557L330.704 479.868C331.355 478.1 331.472 476.616 331.057 475.416C330.674 474.16 329.734 473.1 328.237 472.236L310.279 461.868C308.506 460.844 307.142 460.389 306.189 460.504C305.236 460.619 304.376 461.342 303.608 462.672C303.416 463.004 303.231 463.452 303.054 464.015C302.853 464.49 302.753 464.728 302.753 464.728L298.302 461.493C299.113 459.449 299.908 457.432 300.687 455.443C301.442 453.366 302.113 451.5 302.7 449.843C303.264 448.1 303.718 446.736 304.064 445.753C304.442 444.715 304.631 444.196 304.631 444.196L306.393 444.216C306.842 444.845 307.874 445.81 309.488 447.111C311.078 448.325 313.128 449.767 315.637 451.437C318.09 453.075 320.948 454.91 324.209 456.941C327.415 458.94 330.847 460.995 334.506 463.107C335.78 463.843 336.835 464.193 337.668 464.157C338.446 464.089 339.108 463.584 339.652 462.642C339.908 462.198 340.168 461.684 340.432 461.097C340.729 460.456 340.877 460.135 340.877 460.135L341.437 460.125L346.028 463.885C346.028 463.885 345.825 464.174 345.417 464.751C345.065 465.361 344.574 466.149 343.942 467.114C343.398 468.057 342.794 469.038 342.131 470.059C341.555 471.057 341.011 471.999 340.499 472.886C339.731 474.216 338.966 475.733 338.204 477.436C337.475 479.084 336.829 480.522 336.268 481.75C335.794 482.955 335.558 483.557 335.558 483.557ZM293.593 446.802C292.505 448.687 291.146 449.824 289.517 450.213C287.865 450.516 286.179 450.171 284.461 449.179C282.521 448.059 281.293 446.537 280.778 444.614C280.207 442.658 280.482 440.711 281.602 438.771C282.658 436.942 284.012 435.876 285.665 435.574C287.349 435.216 289.051 435.533 290.769 436.525C292.709 437.645 293.952 439.139 294.5 441.007C295.047 442.875 294.745 444.807 293.593 446.802ZM356.194 448.582C356.194 448.582 355.516 448.412 354.16 448.073C352.748 447.701 350.913 447.233 348.653 446.667C346.425 446.046 343.983 445.412 341.326 444.765C338.615 444.086 335.903 443.407 333.191 442.728C330.479 442.049 328.021 441.443 325.816 440.909C323.612 440.376 321.887 439.971 320.642 439.695C317.47 439.046 315.092 439.965 313.509 442.45L313.08 442.424L308.761 439.154C308.761 439.154 309.017 438.711 309.529 437.824C310.073 436.882 310.724 435.817 311.484 434.63C312.22 433.355 312.844 432.274 313.356 431.387C314.412 429.558 315.38 427.753 316.262 425.971C317.143 424.188 317.876 422.727 318.46 421.586C319.021 420.359 319.302 419.745 319.302 419.745L319.814 419.818L324.12 423.303C323.271 425.029 322.825 426.25 322.782 426.964C322.772 427.623 323.154 428.176 323.93 428.624C324.263 428.816 325.103 429.153 326.45 429.636C327.829 430.063 329.49 430.578 331.432 431.182C333.406 431.731 335.392 432.323 337.39 432.959C339.42 433.54 341.322 434.084 343.098 434.592C344.906 435.045 346.373 435.448 347.499 435.802C348.601 436.069 349.152 436.203 349.152 436.203L349.632 435.371C346.45 431.539 343.599 428.156 341.08 425.224C338.561 422.291 336.507 419.96 334.919 418.23C333.276 416.469 332.177 415.428 331.623 415.108C330.958 414.724 330.402 414.662 329.957 414.922C329.511 415.182 328.984 415.838 328.376 416.891L327.032 419.219L326.258 419.216L322.105 416.042C322.105 416.042 322.393 415.543 322.969 414.545C323.545 413.548 324.276 412.344 325.164 410.935C325.996 409.494 326.764 408.164 327.468 406.945C328.14 405.781 328.796 404.645 329.436 403.536C330.052 402.34 330.585 401.354 331.033 400.578C331.513 399.747 331.753 399.331 331.753 399.331L336.357 402.876C335.819 404.192 335.695 405.302 335.985 406.209C336.275 407.115 337.154 408.472 338.622 410.281L361.091 437.22L356.194 448.582ZM388.446 392.143C387.038 394.582 385.364 396.201 383.424 397.003C381.515 397.748 379.455 397.668 377.245 396.761L376.611 397.282C377.112 398.975 377.525 400.691 377.851 402.431C378.121 404.139 378.273 405.668 378.306 407.018C378.285 408.335 378.066 409.354 377.65 410.075C376.402 412.237 374.755 413.873 372.71 414.983C370.665 416.093 368.44 416.619 366.035 416.561C363.63 416.502 361.291 415.817 359.019 414.505C357.301 413.513 356.088 412.222 355.38 410.631C354.65 408.953 354.49 407.309 354.902 405.699L360.425 387.493L358.478 386.258C356.094 384.882 353.87 384.448 351.803 384.954C349.769 385.406 348.096 386.768 346.784 389.04C345.888 390.592 345.316 392.479 345.068 394.7C344.765 396.89 344.767 398.998 345.076 401.023L344.311 401.579L338.507 400.113C338.492 397.961 338.59 395.616 338.8 393.077C338.954 390.505 339.211 388.141 339.57 385.983C339.961 383.77 340.428 382.193 340.972 381.25C342.828 378.036 344.847 375.691 347.029 374.216C349.21 372.742 351.432 372.029 353.694 372.079C355.901 372.097 358.085 372.729 360.247 373.977C360.968 374.393 362.028 375.117 363.429 376.147C364.829 377.177 366.352 378.315 367.998 379.561C369.643 380.807 371.222 381.977 372.733 383.071C374.245 384.165 375.471 384.984 376.414 385.528C377.467 386.136 378.442 386.367 379.34 386.22C380.269 386.018 381.006 385.446 381.55 384.503C381.966 383.783 382.216 382.966 382.299 382.054C382.415 381.086 382.462 380.3 382.441 379.697L384.907 379.458C385.529 380.556 386.194 381.9 386.901 383.491C387.553 385.05 388.062 386.6 388.428 388.142C388.739 389.652 388.745 390.985 388.446 392.143ZM371.528 402.439C372.008 401.608 372.346 400.51 372.543 399.145C372.716 397.693 372.726 396.332 372.573 395.061L364.818 390.252L362.177 400.587C361.797 402.142 362.327 403.335 363.768 404.167C365.209 404.999 366.669 405.287 368.146 405.032C369.601 404.689 370.728 403.825 371.528 402.439Z" fill="black"/>
</g>
</svg>
