<svg width="133" height="133" viewBox="0 0 133 133" fill="none" xmlns="http://www.w3.org/2000/svg">
<g filter="url(#filter0_dd_2085_3303)">
<rect x="20" y="57.4241" width="64.2393" height="66.3005" transform="rotate(-45 20 57.4241)" fill="white"/>
<rect x="20" y="57.4241" width="64.2393" height="66.3005" transform="rotate(-45 20 57.4241)" stroke="#1A1A1A" stroke-width="4" stroke-linejoin="round"/>
<path d="M60.3089 79.8194L59.4589 72.8861C58.9985 72.7055 58.5646 72.4889 58.1573 72.2361C57.75 71.9833 57.3516 71.7125 56.962 71.4236L50.6401 74.1319L44.7964 63.8402L50.2683 59.6152C50.2328 59.3625 50.2151 59.1187 50.2151 58.884V57.4215C50.2151 57.1868 50.2328 56.943 50.2683 56.6902L44.7964 52.4652L50.6401 42.1736L56.962 44.8819C57.3516 44.593 57.7589 44.3222 58.1839 44.0694C58.6089 43.8166 59.0339 43.6 59.4589 43.4194L60.3089 36.4861H71.9964L72.8464 43.4194C73.3068 43.6 73.7407 43.8166 74.1479 44.0694C74.5552 44.3222 74.9537 44.593 75.3433 44.8819L81.6651 42.1736L87.5089 52.4652L82.037 56.6902C82.0724 56.943 82.0901 57.1868 82.0901 57.4215V58.884C82.0901 59.1187 82.0547 59.3625 81.9839 59.6152L87.4558 63.8402L81.612 74.1319L75.3433 71.4236C74.9537 71.7125 74.5464 71.9833 74.1214 72.2361C73.6964 72.4889 73.2714 72.7055 72.8464 72.8861L71.9964 79.8194H60.3089ZM64.0276 75.4861H68.2245L68.9683 69.7444C70.0662 69.4555 71.0844 69.0312 72.0229 68.4715C72.9615 67.9118 73.8203 67.2347 74.5995 66.4402L79.8589 68.6611L81.9308 64.9777L77.362 61.4569C77.5391 60.9514 77.663 60.4187 77.7339 59.859C77.8047 59.2993 77.8401 58.7305 77.8401 58.1527C77.8401 57.575 77.8047 57.0062 77.7339 56.4465C77.663 55.8868 77.5391 55.3541 77.362 54.8486L81.9308 51.3277L79.8589 47.6444L74.5995 49.9194C73.8203 49.0889 72.9615 48.3937 72.0229 47.834C71.0844 47.2743 70.0662 46.85 68.9683 46.5611L68.2776 40.8194H64.0808L63.337 46.5611C62.2391 46.85 61.2209 47.2743 60.2823 47.834C59.3438 48.3937 58.4849 49.0708 57.7058 49.8652L52.4464 47.6444L50.3745 51.3277L54.9433 54.7944C54.7662 55.3361 54.6422 55.8777 54.5714 56.4194C54.5006 56.9611 54.4651 57.5389 54.4651 58.1527C54.4651 58.7305 54.5006 59.2902 54.5714 59.8319C54.6422 60.3736 54.7662 60.9152 54.9433 61.4569L50.3745 64.9777L52.4464 68.6611L57.7058 66.3861C58.4849 67.2166 59.3438 67.9118 60.2823 68.4715C61.2209 69.0312 62.2391 69.4555 63.337 69.7444L64.0276 75.4861ZM66.2589 65.7361C68.3131 65.7361 70.0662 64.9958 71.5183 63.5152C72.9703 62.0347 73.6964 60.2472 73.6964 58.1527C73.6964 56.0583 72.9703 54.2708 71.5183 52.7902C70.0662 51.3097 68.3131 50.5694 66.2589 50.5694C64.1693 50.5694 62.4073 51.3097 60.9729 52.7902C59.5386 54.2708 58.8214 56.0583 58.8214 58.1527C58.8214 60.2472 59.5386 62.0347 60.9729 63.5152C62.4073 64.9958 64.1693 65.7361 66.2589 65.7361Z" fill="#1D1B20"/>
</g>
<defs>
<filter id="filter0_dd_2085_3303" x="0" y="0" width="132.306" height="132.306" filterUnits="userSpaceOnUse" color-interpolation-filters="sRGB">
<feFlood flood-opacity="0" result="BackgroundImageFix"/>
<feColorMatrix in="SourceAlpha" type="matrix" values="0 0 0 0 0 0 0 0 0 0 0 0 0 0 0 0 0 0 127 0" result="hardAlpha"/>
<feOffset dy="4"/>
<feGaussianBlur stdDeviation="2"/>
<feColorMatrix type="matrix" values="0 0 0 0 0 0 0 0 0 0 0 0 0 0 0 0 0 0 0.3 0"/>
<feBlend mode="normal" in2="BackgroundImageFix" result="effect1_dropShadow_2085_3303"/>
<feColorMatrix in="SourceAlpha" type="matrix" values="0 0 0 0 0 0 0 0 0 0 0 0 0 0 0 0 0 0 127 0" result="hardAlpha"/>
<feMorphology radius="6" operator="dilate" in="SourceAlpha" result="effect2_dropShadow_2085_3303"/>
<feOffset dy="8"/>
<feGaussianBlur stdDeviation="6"/>
<feColorMatrix type="matrix" values="0 0 0 0 0 0 0 0 0 0 0 0 0 0 0 0 0 0 0.15 0"/>
<feBlend mode="normal" in2="effect1_dropShadow_2085_3303" result="effect2_dropShadow_2085_3303"/>
<feBlend mode="normal" in="SourceGraphic" in2="effect2_dropShadow_2085_3303" result="shape"/>
</filter>
</defs>
</svg>
