<svg width="133" height="133" viewBox="0 0 133 133" fill="none" xmlns="http://www.w3.org/2000/svg">
<g filter="url(#filter0_dd_2085_3319)">
<rect x="20" y="57.4241" width="64.2393" height="66.3005" transform="rotate(-45 20 57.4241)" fill="white"/>
<rect x="20" y="57.4241" width="64.2393" height="66.3005" transform="rotate(-45 20 57.4241)" stroke="#1A1A1A" stroke-width="4" stroke-linejoin="round"/>
<path d="M52.3153 69.6278C54.2278 68.1653 56.3653 67.0122 58.7278 66.1685C61.0903 65.3247 63.5653 64.9028 66.1528 64.9028C68.7403 64.9028 71.2153 65.3247 73.5778 66.1685C75.9403 67.0122 78.0778 68.1653 79.9903 69.6278C81.3028 68.0903 82.3247 66.3466 83.056 64.3966C83.7872 62.4466 84.1528 60.3653 84.1528 58.1528C84.1528 53.1653 82.3997 48.9185 78.8935 45.4122C75.3872 41.906 71.1403 40.1528 66.1528 40.1528C61.1653 40.1528 56.9185 41.906 53.4122 45.4122C49.906 48.9185 48.1528 53.1653 48.1528 58.1528C48.1528 60.3653 48.5185 62.4466 49.2497 64.3966C49.981 66.3466 51.0028 68.0903 52.3153 69.6278ZM66.1528 60.4028C63.9403 60.4028 62.0747 59.6435 60.556 58.1247C59.0372 56.606 58.2778 54.7403 58.2778 52.5278C58.2778 50.3153 59.0372 48.4497 60.556 46.931C62.0747 45.4122 63.9403 44.6528 66.1528 44.6528C68.3653 44.6528 70.231 45.4122 71.7497 46.931C73.2685 48.4497 74.0278 50.3153 74.0278 52.5278C74.0278 54.7403 73.2685 56.606 71.7497 58.1247C70.231 59.6435 68.3653 60.4028 66.1528 60.4028ZM66.1528 80.6528C63.0403 80.6528 60.1153 80.0622 57.3778 78.881C54.6403 77.6997 52.2591 76.0966 50.2341 74.0716C48.2091 72.0466 46.606 69.6653 45.4247 66.9278C44.2435 64.1903 43.6528 61.2653 43.6528 58.1528C43.6528 55.0403 44.2435 52.1153 45.4247 49.3778C46.606 46.6403 48.2091 44.2591 50.2341 42.2341C52.2591 40.2091 54.6403 38.606 57.3778 37.4247C60.1153 36.2435 63.0403 35.6528 66.1528 35.6528C69.2653 35.6528 72.1903 36.2435 74.9278 37.4247C77.6653 38.606 80.0466 40.2091 82.0716 42.2341C84.0966 44.2591 85.6997 46.6403 86.881 49.3778C88.0622 52.1153 88.6528 55.0403 88.6528 58.1528C88.6528 61.2653 88.0622 64.1903 86.881 66.9278C85.6997 69.6653 84.0966 72.0466 82.0716 74.0716C80.0466 76.0966 77.6653 77.6997 74.9278 78.881C72.1903 80.0622 69.2653 80.6528 66.1528 80.6528Z" fill="#1D1B20"/>
</g>
<defs>
<filter id="filter0_dd_2085_3319" x="0" y="0" width="132.306" height="132.306" filterUnits="userSpaceOnUse" color-interpolation-filters="sRGB">
<feFlood flood-opacity="0" result="BackgroundImageFix"/>
<feColorMatrix in="SourceAlpha" type="matrix" values="0 0 0 0 0 0 0 0 0 0 0 0 0 0 0 0 0 0 127 0" result="hardAlpha"/>
<feOffset dy="4"/>
<feGaussianBlur stdDeviation="2"/>
<feColorMatrix type="matrix" values="0 0 0 0 0 0 0 0 0 0 0 0 0 0 0 0 0 0 0.3 0"/>
<feBlend mode="normal" in2="BackgroundImageFix" result="effect1_dropShadow_2085_3319"/>
<feColorMatrix in="SourceAlpha" type="matrix" values="0 0 0 0 0 0 0 0 0 0 0 0 0 0 0 0 0 0 127 0" result="hardAlpha"/>
<feMorphology radius="6" operator="dilate" in="SourceAlpha" result="effect2_dropShadow_2085_3319"/>
<feOffset dy="8"/>
<feGaussianBlur stdDeviation="6"/>
<feColorMatrix type="matrix" values="0 0 0 0 0 0 0 0 0 0 0 0 0 0 0 0 0 0 0.15 0"/>
<feBlend mode="normal" in2="effect1_dropShadow_2085_3319" result="effect2_dropShadow_2085_3319"/>
<feBlend mode="normal" in="SourceGraphic" in2="effect2_dropShadow_2085_3319" result="shape"/>
</filter>
</defs>
</svg>
