<svg width="133" height="133" viewBox="0 0 133 133" fill="none" xmlns="http://www.w3.org/2000/svg">
<g filter="url(#filter0_dd_2085_3311)">
<rect x="20" y="57.4246" width="64.24" height="66.3" transform="rotate(-45 20 57.4246)" fill="white"/>
<rect x="20" y="57.4246" width="64.24" height="66.3" transform="rotate(-45 20 57.4246)" stroke="#1A1A1A" stroke-width="4" stroke-linejoin="round"/>
<path d="M51.8818 72.0917C51.8818 70.8595 52.3517 69.6776 53.188 68.8063C54.0244 67.9349 55.1587 67.4454 56.3415 67.4454H80.4234M51.8818 72.0917C51.8818 73.324 52.3517 74.5058 53.188 75.3772C54.0244 76.2485 55.1587 76.738 56.3415 76.738H80.4234V39.5676H56.3415C55.1587 39.5676 54.0244 40.0571 53.188 40.9285C52.3517 41.7998 51.8818 42.9817 51.8818 44.2139V72.0917Z" stroke="#1E1E1E" stroke-width="4" stroke-linecap="round" stroke-linejoin="round"/>
</g>
<defs>
<filter id="filter0_dd_2085_3311" x="0" y="0" width="132.306" height="132.306" filterUnits="userSpaceOnUse" color-interpolation-filters="sRGB">
<feFlood flood-opacity="0" result="BackgroundImageFix"/>
<feColorMatrix in="SourceAlpha" type="matrix" values="0 0 0 0 0 0 0 0 0 0 0 0 0 0 0 0 0 0 127 0" result="hardAlpha"/>
<feOffset dy="4"/>
<feGaussianBlur stdDeviation="2"/>
<feColorMatrix type="matrix" values="0 0 0 0 0 0 0 0 0 0 0 0 0 0 0 0 0 0 0.3 0"/>
<feBlend mode="normal" in2="BackgroundImageFix" result="effect1_dropShadow_2085_3311"/>
<feColorMatrix in="SourceAlpha" type="matrix" values="0 0 0 0 0 0 0 0 0 0 0 0 0 0 0 0 0 0 127 0" result="hardAlpha"/>
<feMorphology radius="6" operator="dilate" in="SourceAlpha" result="effect2_dropShadow_2085_3311"/>
<feOffset dy="8"/>
<feGaussianBlur stdDeviation="6"/>
<feColorMatrix type="matrix" values="0 0 0 0 0 0 0 0 0 0 0 0 0 0 0 0 0 0 0.15 0"/>
<feBlend mode="normal" in2="effect1_dropShadow_2085_3311" result="effect2_dropShadow_2085_3311"/>
<feBlend mode="normal" in="SourceGraphic" in2="effect2_dropShadow_2085_3311" result="shape"/>
</filter>
</defs>
</svg>
